# xmcd CD database file
#
# Track frame offsets:
#	150
#	32221
#	66361
#	98018
#	135368
#	174818
#	204143
#	237518
#	267734
#	301484
#
# Disc length: 4347 seconds
#
# Revision: 0
# Processed by: cddbd v1.5.2PL0 Copyright (c) Steve Scherf et al.
# Submitted via: CDex 1.51
#
DISCID=8510f90a
DTITLE=Charles McPherson - Is That It ? No, But....
DYEAR=2000
DGENRE=Jazz
TTITLE0=But Beautiful
TTITLE1=Illusion in Blue
TTITLE2=Almost Everything
TTITLE3=Spring is Here
TTITLE4=Old Folks
TTITLE5=Like Someone in Love
TTITLE6=A Tear and a Smile
TTITLE7=Gone with the Wind
TTITLE8=Lonely Little Chimes
TTITLE9=Visa
EXTD=YEAR: 2000
EXTT0=
EXTT1=
EXTT2=
EXTT3=
EXTT4=
EXTT5=
EXTT6=
EXTT7=
EXTT8=
EXTT9=
PLAYORDER=
